<svg width="20" height="15" viewBox="0 0 20 15" fill="none" xmlns="http://www.w3.org/2000/svg">
<g clip-path="url(#clip0_259_514)">
<path d="M0.964923 8.45301C0.432027 8.45301 0 8.02622 0 7.49978C0 6.97335 0.432027 6.54656 0.964923 6.54656H16.3594L10.879 1.65917C10.4835 1.30762 10.4516 0.705688 10.8074 0.314993C11.1633 -0.0757016 11.7726 -0.107224 12.1681 0.244327L19.4732 6.75881C19.6917 6.93369 19.8311 7.2006 19.8311 7.49978C19.8311 7.79871 19.6919 8.06561 19.4737 8.24025L12.1681 14.7553C11.7726 15.1068 11.1633 15.0753 10.8074 14.6846C10.4516 14.2939 10.4835 13.692 10.879 13.3404L16.3595 8.45303H0.964938L0.964923 8.45301Z" fill="#226CDC"/>
</g>
<defs>
<clipPath id="clip0_259_514">
<rect width="19.8311" height="15" fill="white"/>
</clipPath>
</defs>
</svg>
