<svg width="21" height="15" viewBox="0 0 21 15" fill="none" xmlns="http://www.w3.org/2000/svg">
<g clip-path="url(#clip0_259_647)">
<path d="M1.22859 8.45301C0.695699 8.45301 0.263672 8.02622 0.263672 7.49978C0.263672 6.97335 0.695699 6.54656 1.22859 6.54656H16.6231L11.1426 1.65917C10.7471 1.30762 10.7152 0.705688 11.0711 0.314993C11.427 -0.0757016 12.0363 -0.107224 12.4318 0.244327L19.7369 6.75881C19.9554 6.93369 20.0948 7.2006 20.0948 7.49978C20.0948 7.79871 19.9556 8.06561 19.7374 8.24025L12.4318 14.7553C12.0363 15.1068 11.427 15.0753 11.0711 14.6846C10.7152 14.2939 10.7472 13.692 11.1426 13.3404L16.6231 8.45303H1.22861L1.22859 8.45301Z" fill="white"/>
</g>
<defs>
<clipPath id="clip0_259_647">
<rect width="19.8311" height="15" fill="white" transform="translate(0.263672)"/>
</clipPath>
</defs>
</svg>
